<svg width="129" height="53" viewBox="0 0 129 53" fill="none" xmlns="http://www.w3.org/2000/svg">
<path d="M4 12H44V20L42.6015 20.8391C40.3847 22.1692 37.6153 22.1692 35.3985 20.8391L34 20L32.6015 20.8391C30.3847 22.1692 27.6153 22.1692 25.3985 20.8391L24 20L22.6015 20.8391C20.3847 22.1692 17.6153 22.1692 15.3985 20.8391L14 20L12.6015 20.8391C10.3847 22.1692 7.61531 22.1692 5.39853 20.8391L4 20V12Z" fill="#2F88FF" stroke="white" stroke-width="4" stroke-linecap="round" stroke-linejoin="round"/>
<path d="M8 22.4889V44H40V22" stroke="white" stroke-width="4" stroke-linecap="round" stroke-linejoin="round"/>
<path d="M8 11.8222V4H40V12" stroke="white" stroke-width="4" stroke-linecap="round" stroke-linejoin="round"/>
<path d="M29 32H19V44H29V32Z" fill="#2F88FF" stroke="white" stroke-width="4" stroke-linecap="round" stroke-linejoin="round"/>
<path d="M50.538 45V26.766H52.464C52.92 26.766 53.202 26.988 53.31 27.432L53.544 29.304C54.216 28.476 54.972 27.798 55.812 27.27C56.652 26.742 57.624 26.478 58.728 26.478C59.952 26.478 60.942 26.82 61.698 27.504C62.466 28.188 63.018 29.112 63.354 30.276C63.618 29.616 63.954 29.046 64.362 28.566C64.782 28.086 65.25 27.69 65.766 27.378C66.282 27.066 66.828 26.838 67.404 26.694C67.992 26.55 68.586 26.478 69.186 26.478C70.146 26.478 70.998 26.634 71.742 26.946C72.498 27.246 73.134 27.69 73.65 28.278C74.178 28.866 74.58 29.592 74.856 30.456C75.132 31.308 75.27 32.286 75.27 33.39V45H72.048V33.39C72.048 31.962 71.736 30.882 71.112 30.15C70.488 29.406 69.588 29.034 68.412 29.034C67.884 29.034 67.38 29.13 66.9 29.322C66.432 29.502 66.018 29.772 65.658 30.132C65.298 30.492 65.01 30.948 64.794 31.5C64.59 32.04 64.488 32.67 64.488 33.39V45H61.266V33.39C61.266 31.926 60.972 30.834 60.384 30.114C59.796 29.394 58.938 29.034 57.81 29.034C57.018 29.034 56.286 29.25 55.614 29.682C54.942 30.102 54.324 30.678 53.76 31.41V45H50.538ZM95.1336 26.766V45H93.2256C92.7696 45 92.4816 44.778 92.3616 44.334L92.1096 42.372C91.3176 43.248 90.4296 43.956 89.4456 44.496C88.4616 45.024 87.3336 45.288 86.0616 45.288C85.0656 45.288 84.1836 45.126 83.4156 44.802C82.6596 44.466 82.0236 43.998 81.5076 43.398C80.9916 42.798 80.6016 42.072 80.3376 41.22C80.0856 40.368 79.9596 39.426 79.9596 38.394V26.766H83.1636V38.394C83.1636 39.774 83.4756 40.842 84.0996 41.598C84.7356 42.354 85.7016 42.732 86.9976 42.732C87.9456 42.732 88.8276 42.51 89.6436 42.066C90.4716 41.61 91.2336 40.986 91.9296 40.194V26.766H95.1336ZM103.526 18.486V45H100.322V18.486H103.526ZM125.642 45H122.438V29.448H113.042V40.392C113.042 41.16 113.228 41.73 113.6 42.102C113.972 42.474 114.452 42.66 115.04 42.66C115.376 42.66 115.664 42.618 115.904 42.534C116.156 42.438 116.372 42.336 116.552 42.228C116.732 42.12 116.882 42.024 117.002 41.94C117.134 41.844 117.248 41.796 117.344 41.796C117.512 41.796 117.662 41.898 117.794 42.102L118.73 43.632C118.178 44.148 117.512 44.556 116.732 44.856C115.952 45.144 115.148 45.288 114.32 45.288C112.88 45.288 111.77 44.886 110.99 44.082C110.222 43.278 109.838 42.12 109.838 40.608V29.448H107.642C107.45 29.448 107.288 29.394 107.156 29.286C107.024 29.166 106.958 28.986 106.958 28.746V27.468L109.946 27.072L110.684 21.456C110.72 21.276 110.798 21.132 110.918 21.024C111.05 20.904 111.218 20.844 111.422 20.844H113.042V27.126H125.642V45ZM126.434 20.916C126.434 21.228 126.368 21.522 126.236 21.798C126.116 22.062 125.948 22.296 125.732 22.5C125.528 22.704 125.288 22.866 125.012 22.986C124.736 23.106 124.442 23.166 124.13 23.166C123.818 23.166 123.524 23.106 123.248 22.986C122.984 22.866 122.75 22.704 122.546 22.5C122.342 22.296 122.18 22.062 122.06 21.798C121.94 21.522 121.88 21.228 121.88 20.916C121.88 20.604 121.94 20.31 122.06 20.034C122.18 19.746 122.342 19.5 122.546 19.296C122.75 19.08 122.984 18.912 123.248 18.792C123.524 18.672 123.818 18.612 124.13 18.612C124.442 18.612 124.736 18.672 125.012 18.792C125.288 18.912 125.528 19.08 125.732 19.296C125.948 19.5 126.116 19.746 126.236 20.034C126.368 20.31 126.434 20.604 126.434 20.916Z" fill="white"/>
<line x1="2" y1="51" x2="129" y2="51" stroke="white" stroke-width="4"/>
</svg>
