<svg width="37" height="38" viewBox="0 0 37 38" fill="none" xmlns="http://www.w3.org/2000/svg">
<path d="M33.6422 11.7657C33.5004 11.5553 33.311 11.3833 33.0903 11.2644C32.8696 11.1455 32.6241 11.0834 32.3749 11.0833H11.305L9.52588 6.6975C9.29261 6.11993 8.8976 5.62651 8.39094 5.2798C7.88428 4.93309 7.28879 4.74869 6.67996 4.75H3.08325V7.91667H6.67996L13.9936 25.9429C14.1108 26.2313 14.3084 26.4777 14.5616 26.651C14.8148 26.8242 15.1123 26.9167 15.4166 26.9167H27.7499C28.3928 26.9167 28.9678 26.5066 29.1945 25.8907L33.8195 13.224C33.9069 12.9843 33.9364 12.7264 33.9055 12.4725C33.8746 12.2185 33.7843 11.976 33.6422 11.7657Z" fill="#8C8C8C"/>
<path d="M16.1875 33.25C17.4647 33.25 18.5 32.1867 18.5 30.875C18.5 29.5633 17.4647 28.5 16.1875 28.5C14.9103 28.5 13.875 29.5633 13.875 30.875C13.875 32.1867 14.9103 33.25 16.1875 33.25Z" fill="#8C8C8C"/>
<path d="M26.9792 33.25C28.2564 33.25 29.2917 32.1867 29.2917 30.875C29.2917 29.5633 28.2564 28.5 26.9792 28.5C25.7021 28.5 24.6667 29.5633 24.6667 30.875C24.6667 32.1867 25.7021 33.25 26.9792 33.25Z" fill="#8C8C8C"/>
</svg>
