<svg width="20" height="19" viewBox="0 0 20 19" fill="none" xmlns="http://www.w3.org/2000/svg">
<path d="M10.0001 7.02677C8.5665 7.02677 7.39658 8.1382 7.39658 9.50011C7.39658 10.862 8.5665 11.9735 10.0001 11.9735C11.4337 11.9735 12.6036 10.862 12.6036 9.50011C12.6036 8.1382 11.4337 7.02677 10.0001 7.02677ZM17.8087 9.50011C17.8087 8.47589 17.8185 7.46095 17.7579 6.43859C17.6974 5.25109 17.4122 4.19718 16.4981 3.32882C15.5821 2.45861 14.4747 2.18957 13.2247 2.13205C12.1466 2.07453 11.0782 2.0838 10.002 2.0838C8.92392 2.0838 7.85556 2.07453 6.77939 2.13205C5.52939 2.18957 4.42001 2.46046 3.50595 3.32882C2.58994 4.19904 2.30673 5.25109 2.24619 6.43859C2.18564 7.46281 2.19541 8.47775 2.19541 9.50011C2.19541 10.5225 2.18564 11.5393 2.24619 12.5616C2.30673 13.7491 2.59189 14.803 3.50595 15.6714C4.42197 16.5416 5.52939 16.8107 6.77939 16.8682C7.85751 16.9257 8.92587 16.9164 10.002 16.9164C11.0802 16.9164 12.1485 16.9257 13.2247 16.8682C14.4747 16.8107 15.5841 16.5398 16.4981 15.6714C17.4142 14.8012 17.6974 13.7491 17.7579 12.5616C17.8204 11.5393 17.8087 10.5243 17.8087 9.50011ZM10.0001 13.3057C7.7833 13.3057 5.99423 11.6061 5.99423 9.50011C5.99423 7.39416 7.7833 5.69455 10.0001 5.69455C12.2169 5.69455 14.006 7.39416 14.006 9.50011C14.006 11.6061 12.2169 13.3057 10.0001 13.3057ZM14.17 6.42746C13.6524 6.42746 13.2345 6.03039 13.2345 5.53869C13.2345 5.04699 13.6524 4.64992 14.17 4.64992C14.6876 4.64992 15.1056 5.04699 15.1056 5.53869C15.1057 5.65544 15.0816 5.77108 15.0347 5.87898C14.9877 5.98687 14.9188 6.08491 14.8319 6.16747C14.745 6.25003 14.6418 6.31549 14.5282 6.3601C14.4146 6.40471 14.2929 6.4276 14.17 6.42746Z" fill="white"/>
</svg>
