<svg width="16" height="16" viewBox="0 0 16 16" fill="none" xmlns="http://www.w3.org/2000/svg">
<path d="M8.00007 5.91719C6.8532 5.91719 5.91726 6.85313 5.91726 8C5.91726 9.14688 6.8532 10.0828 8.00007 10.0828C9.14695 10.0828 10.0829 9.14688 10.0829 8C10.0829 6.85313 9.14695 5.91719 8.00007 5.91719ZM14.2469 8C14.2469 7.1375 14.2548 6.28282 14.2063 5.42188C14.1579 4.42188 13.9298 3.53438 13.1985 2.80313C12.4657 2.07032 11.5798 1.84375 10.5798 1.79532C9.71726 1.74688 8.86257 1.75469 8.00164 1.75469C7.13914 1.75469 6.28445 1.74688 5.42351 1.79532C4.42351 1.84375 3.53601 2.07188 2.80476 2.80313C2.07195 3.53594 1.84539 4.42188 1.79695 5.42188C1.74851 6.28438 1.75632 7.13907 1.75632 8C1.75632 8.86094 1.74851 9.71719 1.79695 10.5781C1.84539 11.5781 2.07351 12.4656 2.80476 13.1969C3.53757 13.9297 4.42351 14.1563 5.42351 14.2047C6.28601 14.2531 7.1407 14.2453 8.00164 14.2453C8.86414 14.2453 9.71882 14.2531 10.5798 14.2047C11.5798 14.1563 12.4673 13.9281 13.1985 13.1969C13.9313 12.4641 14.1579 11.5781 14.2063 10.5781C14.2563 9.71719 14.2469 8.8625 14.2469 8ZM8.00007 11.2047C6.22664 11.2047 4.79539 9.77344 4.79539 8C4.79539 6.22657 6.22664 4.79532 8.00007 4.79532C9.77351 4.79532 11.2048 6.22657 11.2048 8C11.2048 9.77344 9.77351 11.2047 8.00007 11.2047ZM11.336 5.4125C10.9219 5.4125 10.5876 5.07813 10.5876 4.66407C10.5876 4.25 10.9219 3.91563 11.336 3.91563C11.7501 3.91563 12.0844 4.25 12.0844 4.66407C12.0846 4.76239 12.0653 4.85977 12.0277 4.95063C11.9902 5.04149 11.935 5.12404 11.8655 5.19357C11.796 5.26309 11.7134 5.31821 11.6226 5.35578C11.5317 5.39335 11.4343 5.41263 11.336 5.4125Z" fill="#8C8C8C"/>
</svg>
