<svg width="18" height="19" viewBox="0 0 18 19" fill="none" xmlns="http://www.w3.org/2000/svg">
<path d="M5.82904 1.93089L6.63604 1.65855C7.39279 1.40364 8.20129 1.8161 8.52529 2.62201L9.17029 4.22751C9.45079 4.92655 9.29479 5.7491 8.78479 6.26051L7.36354 7.68393C7.45129 8.53576 7.72279 9.37414 8.17729 10.1991C8.60889 10.9972 9.18781 11.6957 9.87979 12.2534L11.5868 11.6518C12.2333 11.4246 12.9383 11.6866 13.3343 12.3017L14.259 13.7346C14.7203 14.4503 14.637 15.4367 14.0648 16.0431L13.452 16.6931C12.8415 17.3399 11.9693 17.575 11.163 17.309C9.25804 16.682 7.50829 14.8208 5.91079 11.7254C4.31104 8.62522 3.74629 5.99372 4.21729 3.83405C4.41529 2.92522 5.02804 2.20085 5.82904 1.93089Z" fill="white"/>
</svg>
