<svg width="19" height="19" viewBox="0 0 19 19" fill="none" xmlns="http://www.w3.org/2000/svg">
<path d="M15.9599 5.41503C13.6799 1.90003 9.02491 0.855031 5.41491 3.04003C1.89991 5.22503 0.759913 9.97503 3.03991 13.49L3.22991 13.775L2.46991 16.625L5.31991 15.865L5.60491 16.055C6.83991 16.72 8.16991 17.1 9.49991 17.1C10.9249 17.1 12.3499 16.72 13.5849 15.96C17.0999 13.68 18.1449 9.02503 15.9599 5.41503ZM13.9649 12.73C13.5849 13.3 13.1099 13.68 12.4449 13.775C12.0649 13.775 11.5899 13.965 9.68991 13.205C8.07491 12.445 6.74491 11.21 5.79491 9.78503C5.22491 9.12003 4.93991 8.26503 4.84491 7.41003C4.84491 6.65003 5.12991 5.98503 5.60491 5.51003C5.79491 5.32003 5.98491 5.22503 6.17491 5.22503H6.64991C6.83991 5.22503 7.02991 5.22503 7.12491 5.60503C7.31491 6.08003 7.78991 7.22003 7.78991 7.31503C7.88491 7.41003 7.88491 7.60003 7.78991 7.69503C7.88491 7.88503 7.78991 8.07503 7.69491 8.17003C7.59991 8.26503 7.50491 8.45503 7.40991 8.55003C7.21991 8.64503 7.12491 8.83503 7.21991 9.02503C7.59991 9.59503 8.07491 10.165 8.54991 10.64C9.11991 11.115 9.68991 11.495 10.3549 11.78C10.5449 11.875 10.7349 11.875 10.8299 11.685C10.9249 11.495 11.3999 11.02 11.5899 10.83C11.7799 10.64 11.8749 10.64 12.0649 10.735L13.5849 11.495C13.7749 11.59 13.9649 11.685 14.0599 11.78C14.1549 12.065 14.1549 12.445 13.9649 12.73Z" fill="white"/>
</svg>
